# Blender v2.80 (sub 75) OBJ File: 'mining_rock1.blend'
# www.blender.org
mtllib mining_rock1.mtl
o Sphere
v -1.130070 -0.187933 2.932930
v 0.962419 0.442027 3.193474
v -0.956246 0.244539 1.484906
v 1.047310 -0.032003 1.053313
v -1.070480 0.061965 1.875347
v -1.028654 0.119624 2.074113
v -1.166903 0.188596 2.512641
v -0.823201 0.412016 3.031843
v -0.514916 0.144918 3.519697
v -1.068237 0.098865 2.950207
v 0.432296 0.491852 3.431873
v 0.985395 -0.022698 3.239653
v 0.823202 0.540097 2.971761
v 0.741131 0.355264 2.770882
v 1.136385 -0.031685 2.038219
v 0.906325 0.343963 1.464678
v 0.644563 0.265921 1.370055
v 0.045226 -0.040995 1.131857
v -0.149644 0.208323 1.351119
v -0.934898 0.206987 1.333723
v -0.464909 0.284739 3.147062
v -0.675928 0.676335 2.562223
v -0.927173 0.581656 2.146307
v -0.439408 0.862532 1.588340
v -0.212982 0.902315 3.030222
v -0.374597 1.011716 2.782449
v -0.112276 0.455932 2.128290
v -0.265325 0.596495 1.636576
v 0.164072 1.005827 2.850683
v 0.267015 0.617598 2.401031
v 0.416710 1.384429 1.892094
v 0.146602 0.510757 1.396232
v 0.675683 0.985891 2.933805
v 0.752762 0.851937 2.415325
v 0.635721 1.045126 2.007758
v 0.625833 0.611511 1.624419
v -1.100786 0.037522 1.912657
v 1.022323 0.177540 1.753860
v -0.848478 0.720913 1.948211
v -0.188157 0.704810 1.974240
v 0.282792 0.749463 1.646248
v 0.777321 0.740656 1.712803
v -0.027505 0.297036 3.470349
v 0.006181 0.120957 1.229893
v -0.023043 0.740349 2.939780
v -0.051388 0.813181 2.590312
v 0.154198 1.015911 2.009308
v -0.057819 0.545408 1.605326
v 0.049081 0.727304 1.809016
v 1.140144 -0.024538 3.017753
v 1.136385 -0.031685 2.285091
v 0.906325 -0.032041 1.426697
v 1.022323 -0.030209 1.718385
v 1.136385 -0.031685 2.005250
v 0.701778 -0.037262 0.888162
v 0.958524 -0.034250 1.020907
v -1.020757 -0.059510 1.530186
v -0.871939 -0.036830 1.141720
v -1.006143 -0.035354 1.383537
v -0.937848 -0.087993 1.198198
v -1.025656 -0.165305 1.915669
v -1.166903 -0.093091 2.446176
v -0.697359 -0.141513 3.381854
v -0.473503 0.236451 3.321622
v -0.686783 0.336695 3.101319
v -0.719240 0.109006 3.256960
v -0.188210 -0.092494 3.511346
v 0.534636 -0.145678 3.629860
v 0.758421 -0.068839 3.383391
vt 0.800000 0.800000
vt 1.000000 0.800000
vt 1.000000 1.000000
vt 0.800000 1.000000
vt 0.000000 0.800000
vt 0.200000 0.800000
vt 0.200000 1.000000
vt 0.000000 1.000000
vt 0.400000 0.800000
vt 0.400000 1.000000
vt 0.500749 0.800000
vt 0.600000 0.800000
vt 0.600000 1.000000
vt 0.500749 1.000000
vt 0.100000 0.100000
vt 0.200000 0.100000
vt 0.200000 0.200000
vt 0.100000 0.200000
vt 0.000000 0.200000
vt 0.200000 0.400000
vt 0.000000 0.400000
vt 0.200000 0.600000
vt 0.000000 0.600000
vt 0.000000 0.699159
vt 0.200000 0.699159
vt 0.400000 0.000000
vt 0.400000 0.200000
vt 0.300000 0.100000
vt 0.400000 0.400000
vt 0.400000 0.600000
vt 0.400000 0.699159
vt 0.500749 0.000000
vt 0.600000 0.000000
vt 0.600000 0.200000
vt 0.500749 0.200000
vt 0.600000 0.400000
vt 0.500749 0.400000
vt 0.600000 0.600000
vt 0.500749 0.600000
vt 0.500749 0.699159
vt 0.600000 0.699159
vt 0.800000 0.000000
vt 0.800000 0.200000
vt 0.800000 0.400000
vt 0.800000 0.600000
vt 0.800000 0.699159
vt 1.000000 0.000000
vt 1.000000 0.200000
vt 1.000000 0.400000
vt 1.000000 0.600000
vt 1.000000 0.699159
vt 1.000000 0.400000
vt 1.000000 0.600000
vt 1.000000 0.699159
vt 1.000000 0.800000
vt 1.000000 0.600000
vt 1.000000 0.800000
vt 1.000000 0.800000
vt 1.000000 1.000000
vt 0.800000 1.000000
vt 0.400000 1.000000
vt 0.200000 1.000000
vt 0.000000 0.000000
vt 0.000000 0.000000
vt 0.000000 0.000000
vt 0.200000 1.000000
vt 0.000000 1.000000
vt 0.200000 1.000000
vt 0.000000 0.800000
vt 0.000000 0.600000
vt 0.000000 0.400000
vt 0.000000 0.000000
vt 0.000000 0.000000
vt 0.000000 0.000000
vt 0.000000 0.000000
vt 0.000000 0.100000
vt 0.000000 0.000000
vt 0.100000 0.000000
vt 0.200000 0.000000
vt 0.000000 0.400000
vt 0.000000 0.400000
vt 0.000000 0.000000
vt 0.000000 0.000000
vt 0.000000 0.000000
vt 1.000000 0.400000
vt 1.000000 0.400000
vt 0.000000 0.000000
vt 0.000000 0.000000
vt 0.000000 0.000000
vt 0.400000 0.000000
vt 0.500749 0.000000
vt 0.600000 0.000000
vt 0.800000 0.000000
vt 0.400000 1.000000
vt 0.200000 1.000000
vt 0.000000 0.000000
vt 0.000000 0.000000
vt 0.000000 0.000000
vt 0.000000 0.000000
vt 0.000000 0.000000
vt 0.000000 0.000000
vt 0.000000 0.000000
vt 0.000000 0.000000
vt 0.000000 0.000000
vt 0.000000 0.000000
vt 0.000000 0.000000
vt 0.000000 0.000000
vt 0.000000 0.000000
vt 0.000000 0.000000
vt 0.000000 0.000000
vt 0.000000 0.000000
vt 0.000000 0.000000
vt 0.000000 0.000000
vt 0.000000 0.000000
vn 0.0589 0.6839 -0.7272
vn -0.7654 0.6433 -0.0193
vn 0.1725 0.4024 -0.8990
vn -0.5060 0.4863 -0.7124
vn 0.1900 0.4782 -0.8575
vn -0.2635 0.7560 0.5991
vn -0.4132 0.8400 0.3517
vn -0.8490 0.5282 0.0111
vn -0.6994 0.3070 -0.6454
vn -0.9291 0.3696 0.0140
vn -0.7435 0.3713 0.5562
vn -0.0661 0.8523 -0.5188
vn 0.2997 0.9355 0.1872
vn -0.3461 0.6688 0.6580
vn -0.3257 0.8687 -0.3733
vn 0.1481 0.7145 0.6838
vn -0.4008 0.7689 -0.4981
vn 0.3609 0.5679 0.7397
vn -0.1372 0.8609 -0.4899
vn -0.0303 0.6907 0.7225
vn 0.1843 0.5835 -0.7909
vn -0.0055 0.4285 0.9035
vn 0.9912 0.1182 -0.0593
vn 0.9284 0.3303 0.1704
vn 0.7199 0.5210 -0.4586
vn 0.9104 0.4129 -0.0246
vn 0.4222 0.4549 -0.7841
vn -0.6813 0.4538 -0.5744
vn 0.0604 0.6705 0.7395
vn -0.9558 0.2925 0.0290
vn -0.6638 0.7011 0.2605
vn -0.1337 0.8916 -0.4325
vn -0.6253 0.6551 -0.4241
vn 0.5943 0.8023 0.0558
vn 0.1682 0.6129 0.7720
vn -0.0938 0.6156 -0.7824
vn 0.6946 0.7194 -0.0079
vn 0.9321 0.0452 -0.3594
vn 0.9364 0.1098 -0.3334
vn 0.8996 -0.2744 0.3397
vn -0.0496 0.8427 -0.5361
vn 0.0045 0.6418 -0.7668
vn -0.4154 0.3957 -0.8191
vn -0.9676 0.2184 -0.1267
vn -0.8511 0.2262 -0.4737
vn -0.9890 0.0130 -0.1470
vn -0.9506 0.1102 -0.2902
vn -0.8091 -0.2921 0.5100
vn -0.6617 -0.2556 -0.7049
vn -0.5350 0.3779 0.7557
vn -0.6893 0.1912 0.6988
vn -0.7150 0.5011 0.4875
vn -0.9835 0.0833 0.1608
vn -0.7891 0.5421 0.2891
vn 0.9043 0.4003 -0.1484
vn 0.8652 0.1393 -0.4817
vn -0.0569 -0.1132 0.9919
vn -0.0932 0.2307 0.9686
vn 0.5854 0.2746 0.7628
vn 0.0010 -0.9990 -0.0443
vn -0.1765 -0.4624 0.8690
vn 0.3116 -0.9280 -0.2044
vn -0.2370 -0.9691 0.0688
vn 0.3949 -0.9158 -0.0736
vn -0.4896 -0.8393 -0.2366
vn -0.3451 -0.9200 -0.1859
vn 0.7532 -0.5054 0.4211
vn 0.2366 -0.9677 -0.0869
vn 0.0324 -0.9992 -0.0226
vn 0.1238 -0.9923 0.0090
vn -0.0129 -0.9999 0.0000
vn 0.0143 -0.9999 -0.0055
vn 0.0081 -0.9999 0.0066
vn 0.0095 -1.0000 0.0025
vn 0.0084 -0.9999 0.0065
vn 0.0576 -0.9944 -0.0889
vn 0.3393 -0.9084 0.2441
usemtl None
s off
f 36/1/1 16/2/1 4/3/1 17/4/1
f 5/5/2 24/6/2 20/7/2 3/8/2
f 24/6/3 28/9/3 19/10/3 20/7/3
f 48/11/4 32/12/4 18/13/4 44/14/4
f 32/12/5 36/1/5 17/4/5 18/13/5
f 66/15/6 64/16/6 21/17/6 65/18/6
f 8/19/7 65/18/7 21/17/7 22/20/7 7/21/7
f 7/21/8 22/20/8 23/22/8 6/23/8
f 37/24/9 39/25/9 24/6/9 5/5/9
f 9/26/10 25/27/10 21/17/10 64/28/10
f 21/17/11 25/27/11 26/29/11 22/20/11
f 22/20/12 26/29/12 27/30/12 23/22/12
f 39/25/13 40/31/13 28/9/13 24/6/13
f 43/32/14 11/33/14 29/34/14 45/35/14
f 45/35/15 29/34/15 30/36/15 46/37/15
f 46/37/16 30/36/16 31/38/16 47/39/16
f 49/40/17 41/41/17 32/12/17 48/11/17
f 11/33/18 12/42/18 33/43/18 29/34/18
f 29/34/19 33/43/19 34/44/19 30/36/19
f 30/36/20 34/44/20 35/45/20 31/38/20
f 41/41/21 42/46/21 36/1/21 32/12/21
f 12/42/22 2/47/22 13/48/22 33/43/22
f 33/43/23 13/48/23 14/49/23 34/44/23
f 34/44/24 14/49/24 15/50/24 35/45/24
f 42/46/25 38/51/25 16/2/25 36/1/25
f 35/45/26 15/50/26 38/51/26 42/46/26
f 31/38/27 35/45/27 42/46/27 41/41/27
f 47/39/28 31/38/28 41/41/28 49/40/28
f 23/22/29 27/30/29 40/31/29 39/25/29
f 6/23/30 23/22/30 39/25/30 37/24/30
f 27/30/31 47/39/31 49/40/31 40/31/31
f 40/31/32 49/40/32 48/11/32 28/9/32
f 26/29/33 46/37/33 47/39/33 27/30/33
f 25/27/34 45/35/34 46/37/34 26/29/34
f 9/26/35 43/32/35 45/35/35 25/27/35
f 28/9/36 48/11/36 44/14/36 19/10/36
f 15/50/37 14/49/37 50/52/37 51/53/37
f 16/2/38 38/51/38 53/54/38 52/55/38
f 38/51/39 15/50/39 54/56/39 53/54/39
f 16/2/40 52/55/40 56/57/40 4/58/40
f 17/4/41 4/3/41 55/59/41 18/60/41
f 20/7/42 19/10/42 18/61/42 58/62/42
f 44/63/43 18/64/43 19/65/43
f 3/8/44 20/7/44 59/66/44 57/67/44
f 59/66/45 20/7/45 58/62/45 60/68/45
f 5/5/46 3/8/46 57/67/46 61/69/46
f 7/21/47 6/23/47 61/70/47 62/71/47
f 6/72/48 37/73/48 61/74/48
f 37/73/49 5/75/49 61/74/49
f 10/76/50 66/15/50 65/18/50 8/19/50
f 1/77/51 63/78/51 66/15/51 10/76/51
f 63/78/52 9/79/52 64/16/52 66/15/52
f 7/21/53 62/71/53 1/80/53 10/81/53
f 7/82/54 10/83/54 8/84/54
f 50/52/55 14/49/55 2/85/55 12/86/55
f 13/87/56 2/88/56 14/89/56
f 43/32/57 9/26/57 63/90/57 67/91/57
f 11/33/58 43/32/58 67/91/58 68/92/58
f 12/42/59 11/33/59 68/92/59 69/93/59
f 58/62/60 18/61/60 68/94/60 63/95/60
f 67/96/61 63/97/61 68/98/61
f 62/99/62 63/97/62 1/77/62
f 62/99/63 61/74/63 63/97/63
f 61/74/64 58/100/64 63/97/64
f 57/101/65 58/100/65 61/74/65
f 59/102/66 58/100/66 57/101/66
f 60/103/67 58/100/67 59/102/67
f 18/64/68 69/104/68 68/98/68
f 18/64/69 51/105/69 69/104/69
f 69/104/70 51/105/70 50/106/70
f 53/107/71 54/108/71 15/109/71
f 18/64/72 53/107/72 51/105/72
f 53/107/71 15/109/71 51/105/71
f 55/110/73 52/111/73 18/64/73
f 52/111/74 53/107/74 18/64/74
f 55/110/75 56/112/75 52/111/75
f 4/113/76 56/112/76 55/110/76
f 12/114/77 69/104/77 50/106/77
