# Blender v2.78 (sub 0) OBJ File: 'house1baked.blend'
# www.blender.org
mtllib house1baked.mtl
o Cube.016
v -0.775601 1.765897 -4.945167
v -0.775601 2.088308 -4.945167
v -0.775601 1.765897 -5.497822
v -0.775601 2.088308 -5.497822
v 1.424399 1.765897 -4.945167
v 1.424399 2.088308 -4.945167
v 1.424399 1.765897 -5.497822
v 1.424399 2.088308 -5.497822
v 4.684457 1.765897 -4.945169
v 4.684457 2.088308 -4.945169
v 4.684457 1.765897 -5.497824
v 4.684457 2.088308 -5.497824
v 6.884458 1.765897 -4.945170
v 6.884458 2.088308 -4.945170
v 6.884458 1.765897 -5.497825
v 6.884458 2.088308 -5.497825
v -8.461123 5.612174 5.332464
v -8.461123 5.698597 5.332464
v -8.461123 5.612174 -5.332464
v -8.461123 5.698597 -5.332464
v 8.461122 5.612174 5.332464
v 8.461122 5.698597 5.332464
v 8.461123 5.612174 -5.332464
v 8.461123 5.698597 -5.332464
v -8.461123 5.612174 0.000000
v -8.461123 9.597388 0.000000
v 8.461122 5.612174 0.000000
v 8.461122 9.597388 0.000000
v 8.461122 9.597388 0.000000
v 8.461122 5.698597 5.332464
v -8.461123 5.698597 5.332464
v -8.461123 9.597388 0.000000
v 8.461122 9.839562 0.177063
v 8.461122 5.940771 5.509528
v -8.461123 5.940772 5.509528
v -8.461123 9.839562 0.177064
v -8.461123 9.839562 -0.177063
v -8.461123 5.940771 -5.509528
v 8.461122 5.940771 -5.509528
v 8.461122 9.839562 -0.177064
v 8.461122 5.403490 5.736087
v -8.461123 5.403490 5.736088
v 8.461122 5.645665 5.913152
v -8.461123 5.645665 5.913152
v -8.461123 5.403490 -5.736086
v 8.461122 5.403490 -5.736088
v -8.461123 5.645664 -5.913151
v 8.461122 5.645664 -5.913152
v -9.040239 9.597388 0.000000
v -9.040239 5.698597 -5.332464
v 9.040239 5.698597 -5.332463
v 9.040238 9.597388 0.000000
v 9.040238 9.597388 0.000000
v 9.040238 5.698597 5.332463
v -9.040239 5.698597 5.332464
v -9.040239 9.597388 0.000000
v 9.040238 9.839562 0.177064
v 9.040238 5.940771 5.509527
v -9.040239 5.940772 5.509527
v -9.040239 9.839562 0.177064
v -9.040239 9.839562 -0.177064
v -9.040239 5.940771 -5.509527
v 9.040238 5.940771 -5.509528
v 9.040238 9.839562 -0.177064
v -9.040239 5.403490 5.736087
v -9.040239 5.645665 5.913152
v 9.040238 5.645665 5.913151
v 9.040238 5.403490 5.736087
v -9.040239 5.645664 -5.913151
v -9.040239 5.403490 -5.736086
v 9.040238 5.645664 -5.913151
v 9.040238 5.403490 -5.736087
v -7.423847 7.643606 2.435855
v -7.423847 11.423794 2.435855
v -7.423847 7.643606 1.364148
v -7.423847 11.423794 1.364148
v -6.352140 7.643606 2.435855
v -6.352140 11.423794 2.435855
v -6.352140 7.643606 1.364148
v -6.352140 11.423794 1.364148
v -11.238073 0.059230 1.761378
v -11.238073 0.672923 1.761378
v -11.238073 0.059230 -2.146556
v -11.238073 0.672923 -2.146556
v -7.194429 0.059230 1.761378
v -7.194429 0.672923 1.761378
v -7.194429 0.059230 -2.146556
v -7.194429 0.672923 -2.146556
v -10.239906 0.059230 -2.146556
v -10.239906 0.672923 -2.146556
v -10.239906 0.059230 1.761378
v -10.239906 0.672923 1.761378
v -10.239906 1.419266 -2.146556
v -7.194429 1.419266 -2.146556
v -7.194429 1.419267 1.761378
v -10.239906 1.419267 1.761378
v -8.561089 1.485421 0.648741
v -8.561089 4.856971 0.648741
v -8.561089 1.485421 -1.162047
v -8.561089 4.856971 -1.162047
v -8.433237 1.485421 0.648741
v -8.433237 4.856971 0.648741
v -8.433237 1.485421 -1.162047
v -8.433237 4.856971 -1.162047
v -8.637684 3.527102 -0.954751
v -8.462954 3.527102 -0.954751
v -8.637684 3.501513 -1.016528
v -8.462954 3.501513 -1.016528
v -8.637684 3.439737 -1.042117
v -8.462954 3.439737 -1.042117
v -8.637684 3.377960 -1.016528
v -8.462954 3.377960 -1.016528
v -8.637686 3.352371 -0.954751
v -8.462954 3.352371 -0.954751
v -8.637686 3.377960 -0.892974
v -8.462954 3.377960 -0.892974
v -8.637686 3.439737 -0.867385
v -8.462954 3.439737 -0.867385
v -8.637686 3.501513 -0.892974
v -8.462954 3.501513 -0.892974
v -9.034372 5.647640 5.327133
v -9.034372 4.980028 5.327133
v -9.034372 5.647639 -5.327132
v -9.034372 4.980027 -5.327132
v 9.034371 5.647640 5.327132
v 9.034371 4.980028 5.327132
v 9.034372 5.647639 -5.327134
v 9.034372 4.980027 -5.327134
v -8.443213 0.069854 5.221118
v -8.443213 5.694492 5.221118
v -8.443213 0.069853 -5.221117
v -8.443213 5.694491 -5.221117
v 8.443212 0.069854 5.221117
v 8.443212 5.694492 5.221117
v 8.443213 0.069853 -5.221117
v 8.443213 5.694491 -5.221117
v -6.055809 1.928072 5.297501
v -6.055809 3.928072 5.297501
v -6.055809 1.928072 5.147799
v -6.055809 3.928072 5.147799
v -4.055809 1.928072 5.297501
v -4.055809 3.928072 5.297501
v -4.055809 1.928072 5.147799
v -4.055809 3.928072 5.147799
v -0.646872 1.928072 5.297501
v -0.646872 3.928072 5.297501
v -0.646872 1.928072 5.147799
v -0.646872 3.928072 5.147799
v 1.353128 1.928072 5.297501
v 1.353128 3.928072 5.297501
v 1.353128 1.928072 5.147799
v 1.353128 3.928072 5.147799
v 4.813187 1.928072 5.297501
v 4.813187 3.928072 5.297501
v 4.813187 1.928072 5.147799
v 4.813187 3.928072 5.147799
v 6.813187 1.928072 5.297501
v 6.813187 3.928072 5.297501
v 6.813187 1.928072 5.147799
v 6.813187 3.928072 5.147799
v -6.055809 1.928071 -5.162631
v -6.055809 3.928071 -5.162631
v -6.055809 1.928071 -5.312333
v -6.055809 3.928071 -5.312333
v -4.055809 1.928071 -5.162632
v -4.055809 3.928071 -5.162632
v -4.055809 1.928071 -5.312334
v -4.055809 3.928071 -5.312334
v -0.646871 1.928071 -5.162632
v -0.646871 3.928071 -5.162632
v -0.646871 1.928071 -5.312333
v -0.646871 3.928071 -5.312333
v 1.353129 1.928071 -5.162631
v 1.353129 3.928071 -5.162631
v 1.353129 1.928071 -5.312332
v 1.353129 3.928071 -5.312332
v 4.813188 1.928071 -5.162631
v 4.813188 3.928071 -5.162631
v 4.813188 1.928071 -5.312333
v 4.813188 3.928071 -5.312333
v 6.813188 1.928071 -5.162631
v 6.813188 3.928071 -5.162631
v 6.813188 1.928071 -5.312332
v 6.813188 3.928071 -5.312332
v 6.939610 1.765898 4.941938
v 6.939610 2.088308 4.941938
v 6.939610 1.765898 5.494593
v 6.939610 2.088308 5.494593
v 4.739610 1.765898 4.941939
v 4.739610 2.088308 4.941939
v 4.739610 1.765898 5.494594
v 4.739610 2.088308 5.494594
v 1.530673 1.765898 4.941940
v 1.530673 2.088308 4.941940
v 1.530673 1.765898 5.494595
v 1.530673 2.088308 5.494595
v -0.669327 1.765898 4.941941
v -0.669327 2.088308 4.941941
v -0.669327 1.765898 5.494596
v -0.669327 2.088308 5.494596
v -3.929386 1.765898 4.941942
v -3.929386 2.088308 4.941942
v -3.929386 1.765898 5.494596
v -3.929386 2.088308 5.494596
v -6.129386 1.765898 4.941943
v -6.129386 2.088308 4.941943
v -6.129386 1.765898 5.494597
v -6.129386 2.088308 5.494597
v -6.184536 1.765897 -4.945164
v -6.184536 2.088308 -4.945164
v -6.184537 1.765897 -5.497818
v -6.184537 2.088308 -5.497818
v -3.984538 1.765897 -4.945166
v -3.984538 2.088308 -4.945166
v -3.984539 1.765897 -5.497821
v -3.984539 2.088308 -5.497821
vt -1.1879 2.1879
vt -1.1879 -1.1879
vt 2.2020 2.2127
vt 2.1879 2.1879
vt 1.5678 -0.5678
vt 1.5678 1.5678
vt -0.5396 -0.5628
vt -0.5678 -0.5678
vt 1.5678 -0.5678
vt 1.5678 1.5678
vt -0.5678 1.5678
vt -0.5678 -0.5678
vt -1.1879 2.1879
vt -1.1879 -1.1879
vt 2.1879 -1.1879
vt 2.1879 2.1879
vt 2.3700 -1.9883
vt 2.3700 1.2890
vt -1.2169 1.2890
vt -1.2169 -1.9883
vt -1.3119 4.0113
vt -1.3119 0.6400
vt 0.3875 0.6400
vt 0.3875 4.0113
vt 0.7358 -2.4086
vt 0.7358 0.9333
vt -2.9155 0.9333
vt -2.9155 -2.4086
vt -3.0113 4.0113
vt -3.0113 0.6400
vt -1.3119 0.6400
vt -1.3119 4.0113
vt 0.7518 0.1859
vt 0.7518 1.5914
vt 0.2980 1.5914
vt 0.2980 0.1859
vt 0.5761 0.1859
vt 0.5761 1.5914
vt 0.2277 1.5914
vt 0.2277 0.1859
vt 0.5378 0.1859
vt 0.5378 1.5914
vt 0.7702 1.5914
vt 0.7702 0.1859
vt 0.3355 0.1859
vt 0.3355 1.5914
vt 0.5539 1.5914
vt 0.5539 0.1859
vt 0.4755 -0.6658
vt 0.6375 -0.6658
vt 0.6375 -0.0793
vt 0.4755 -0.0793
vt 1.1997 -0.7524
vt 1.1997 -0.5598
vt 0.0278 -0.5598
vt 0.0278 -0.7524
vt 0.3510 -0.8014
vt 0.3510 -0.0877
vt -0.4598 -0.0877
vt -0.4598 -0.8014
vt 0.3098 -0.1003
vt 0.3098 0.7711
vt -0.0350 0.7711
vt -0.0350 -0.1003
vt 0.1137 0.1061
vt 0.1137 -0.1561
vt 1.1137 -0.1561
vt 1.1137 0.1061
vt 0.4302 0.0868
vt 1.0363 0.0868
vt 1.0363 0.7768
vt 0.4302 0.7768
vt 1.3620 -0.1003
vt 1.3620 0.7711
vt 0.2149 -0.8014
vt 0.2149 -0.0877
vt -0.1197 -0.0877
vt -0.1197 -0.8014
vt 0.1137 2.1222
vt 0.1137 1.3222
vt 1.1137 1.3222
vt 1.1137 2.1222
vt 0.0101 0.5400
vt 1.2174 0.5400
vt 1.2174 0.8883
vt 0.0101 0.8883
vt 0.9307 0.1822
vt 1.5516 0.1822
vt 1.5516 0.6539
vt 0.9307 0.6539
vt -0.0169 0.9874
vt -0.0169 0.0126
vt 1.0169 0.0126
vt 1.0169 0.9874
vt 0.0094 0.0042
vt 0.0821 0.0042
vt 0.0821 0.9958
vt 0.0094 0.9958
vt 0.0094 0.0042
vt 0.0821 0.0042
vt 0.0821 0.9958
vt 0.0094 0.9958
vt 0.0094 0.0042
vt 0.0094 0.9958
vt 0.1528 -0.1907
vt 0.8472 -0.1907
vt 0.8472 1.1907
vt 0.1528 1.1907
vt 0.1528 -0.1907
vt 0.8472 -0.1907
vt 0.8472 1.1907
vt 0.1528 1.1907
vt 0.1528 -0.1907
vt 0.8472 -0.1907
vt 0.8472 1.1907
vt 0.1528 1.1907
vt 0.8472 -0.1907
vt 0.8472 1.1907
vt 0.1528 1.1907
vt 0.1528 -0.1907
vt 0.8472 1.1907
vt 0.1528 1.1907
vt 0.1528 -0.1907
vt 0.8472 -0.1907
vt 0.8472 1.1907
vt 0.1528 1.1907
vt 0.1528 -0.1907
vt 0.8472 -0.1907
vt 0.8472 1.1907
vt 0.1528 1.1907
vt 0.1528 -0.1907
vt 0.8472 -0.1907
vt 0.8472 1.1907
vt 0.1528 1.1907
vt 0.8472 -0.1907
vt 0.8472 1.1907
vt 0.1528 1.1907
vt 0.1528 -0.1907
vt 0.8472 1.1907
vt 0.1528 1.1907
vt 0.9571 53.7163
vt 0.4696 53.7163
vt 0.4696 53.3516
vt 0.9571 53.3516
vt 14.2115 -29.2208
vt 1.0000 -29.2208
vt 1.0000 -30.2208
vt 14.2115 -30.2208
vt 0.4696 8.7338
vt 0.9571 8.7338
vt 0.9571 9.2163
vt 0.4696 9.2163
vt -1.3894 -0.1979
vt 2.3894 -0.1979
vt 2.3894 1.1979
vt -1.3894 1.1979
vt 0.4696 -43.0584
vt 0.9571 -43.0584
vt 0.9571 -42.6936
vt 0.4696 -42.6936
vt 0.9571 -5.3640
vt 0.4696 -5.3640
vt 0.0000 0.0000
vt 1.0000 0.0000
vt 1.0000 1.0000
vt 0.0000 1.0000
vt 0.4696 -5.8464
vt 0.9571 -5.8464
vt 0.9571 -53.7165
vt 0.4696 -53.7165
vt 1.0000 0.0000
vt 0.0000 0.0000
vt 0.0000 -29.2208
vt 0.9571 -13.0332
vt 0.9571 -6.8713
vt 0.4696 -6.8713
vt 0.4696 -13.0332
vt 0.9571 -6.7437
vt 0.9571 -0.5818
vt 0.4696 -0.5818
vt 0.4696 -6.7437
vt 0.9571 3.9517
vt 0.9571 10.1136
vt 0.4696 10.1136
vt 0.4696 3.9517
vt 0.4696 3.4853
vt 0.9571 3.4853
vt 0.4696 16.4030
vt 0.9571 16.4030
vt 0.9571 16.8694
vt 0.4696 16.8694
vt 0.9571 10.2412
vt 0.4696 10.2412
vt 0.9571 -0.1154
vt 0.4696 -0.1154
vt 0.4696 -13.4996
vt 0.9571 -13.4996
vt 0.0000 -30.2208
vt -1.3894 -0.1979
vt 2.3894 -0.1979
vt 2.3894 1.1979
vt -1.3894 1.1979
vt 0.0000 0.0000
vt 1.0000 1.0000
vt 0.0000 1.0000
vt 1.0000 1.0000
vt 0.0000 1.0000
vt 1.0000 0.0000
vt 1.0000 1.0000
vt 0.0000 1.0000
vt 0.0000 0.0000
vt 1.0000 0.0000
vt 1.0000 1.0000
vt 0.0000 1.0000
vt 0.1827 3.4207
vt 0.1827 -4.1620
vt 0.7806 -4.1620
vt 0.7806 3.4207
vt -0.0047 8.0416
vt -0.0047 -7.3785
vt 0.5295 -7.3785
vt 0.5295 8.0416
vt 0.5564 3.0439
vt 0.5564 -2.5043
vt 1.1891 -2.5043
vt 1.1891 3.0439
vt 0.1941 4.7159
vt 0.1941 -4.1661
vt 0.7574 -4.1661
vt 0.7574 4.7159
vt -3.9816 -3.9552
vt 4.9149 -3.9552
vt 4.9149 4.9413
vt -3.9816 4.9413
vt -5.0502 -7.4415
vt 6.3034 -7.4415
vt 6.3034 3.9121
vt -5.0502 3.9121
vt 0.1528 -0.1907
vt 0.8472 -0.1907
vt 0.8472 1.1907
vt 0.1528 1.1907
vt 0.1528 -0.1907
vt 0.8472 -0.1907
vt 0.8472 1.1907
vt 0.1528 1.1907
vt 0.1528 -0.1907
vt 0.8472 -0.1907
vt 0.8472 1.1907
vt 0.1528 1.1907
vt 0.8472 -0.1907
vt 0.8472 1.1907
vt 0.1528 1.1907
vt 0.1528 -0.1907
vt 0.8472 1.1907
vt 0.1528 1.1907
vt 0.1528 -0.1907
vt 0.8472 -0.1907
vt 0.8472 1.1907
vt 0.1528 1.1907
vt 0.1528 -0.1907
vt 0.8472 -0.1907
vt 0.8472 1.1907
vt 0.1528 1.1907
vt 0.1528 -0.1907
vt 0.8472 -0.1907
vt 0.8472 1.1907
vt 0.1528 1.1907
vt 0.8472 -0.1907
vt 0.8472 1.1907
vt 0.1528 1.1907
vt 0.1528 -0.1907
vt 0.8472 1.1907
vt 0.1528 1.1907
vt 0.1528 -0.1907
vt 0.8472 -0.1907
vt 0.8472 1.1907
vt 0.1528 1.1907
vt 0.1528 -0.1907
vt 0.8472 -0.1907
vt 0.8472 1.1907
vt 0.1528 1.1907
vt 0.1528 -0.1907
vt 0.8472 -0.1907
vt 0.8472 1.1907
vt 0.1528 1.1907
vt 0.8472 -0.1907
vt 0.8472 1.1907
vt 0.1528 1.1907
vt 0.1528 -0.1907
vt 0.8472 1.1907
vt 0.1528 1.1907
vt 0.1528 -0.1907
vt 0.8472 -0.1907
vt 0.8472 1.1907
vt 0.1528 1.1907
vt 0.1528 -0.1907
vt 0.8472 -0.1907
vt 0.8472 1.1907
vt 0.1528 1.1907
vt 0.1528 -0.1907
vt 0.8472 -0.1907
vt 0.8472 1.1907
vt 0.1528 1.1907
vt 0.8472 -0.1907
vt 0.8472 1.1907
vt 0.1528 1.1907
vt 0.1528 -0.1907
vt 0.8472 1.1907
vt 0.1528 1.1907
vt -3.4344 0.8647
vt -3.4344 0.9377
vt -3.7016 0.9377
vt -3.7016 0.8647
vt 4.3733 0.9377
vt 4.3733 4.2436
vt -3.4344 4.2436
vt 4.6405 0.9377
vt 4.6405 4.2436
vt -3.4344 -2.3969
vt 4.3733 -2.3969
vt 4.3733 0.8647
vt 4.6405 0.8647
vt 4.3733 4.5105
vt -3.4344 4.5105
vt 4.6405 -2.3969
vt -3.4344 -2.6639
vt 4.3733 -2.6639
vt -3.7016 -2.3969
vt -3.7016 4.5105
vt -3.7016 4.2436
vt -3.7016 -2.6639
vt 4.6405 4.5105
vt 4.6405 -2.6639
vt 0.0277 0.0259
vt 0.9723 0.0259
vt 0.9723 0.1301
vt 0.0277 0.1301
vt 0.0277 0.0259
vt 0.9723 0.0259
vt 0.9723 0.1301
vt 0.0277 0.1301
vt 0.0271 1.0306
vt 0.0271 0.0574
vt 0.9729 0.0574
vt 0.9729 1.0306
vt 0.0277 0.0259
vt 0.9723 0.0259
vt 0.9723 0.1301
vt 0.0277 0.1301
vt 0.0277 0.0259
vt 0.9723 0.0259
vt 0.9723 0.1301
vt 0.0277 0.1301
vt 0.0277 0.0259
vt 0.9723 0.0259
vt 0.9723 0.1301
vt 0.0277 0.1301
vt 0.0277 0.0259
vt 0.9723 0.0259
vt 0.9723 0.1301
vt 0.0277 0.1301
vt 0.0271 1.0306
vt 0.0271 0.0574
vt 0.9729 0.0574
vt 0.9729 1.0306
vt 0.0277 0.0259
vt 0.9723 0.0259
vt 0.9723 0.1301
vt 0.0277 0.1301
vt 0.0277 0.0259
vt 0.9723 0.0259
vt 0.9723 0.1301
vt 0.0277 0.1301
vt 0.0277 0.0259
vt 0.9723 0.0259
vt 0.9723 0.1301
vt 0.0277 0.1301
vt 0.0271 1.0306
vt 0.0271 0.0574
vt 0.9729 0.0574
vt 0.9729 1.0306
vt 0.0277 0.0259
vt 0.9723 0.0259
vt 0.9723 0.1301
vt 0.0277 0.1301
vt 0.0277 0.0259
vt 0.9723 0.0259
vt 0.9723 0.1301
vt 0.0277 0.1301
vt 0.0271 1.0306
vt 0.0271 0.0574
vt 0.9729 0.0574
vt 0.9729 1.0306
vt 0.0277 0.0259
vt 0.9723 0.0259
vt 0.9723 0.1301
vt 0.0277 0.1301
vt 0.0277 0.0259
vt 0.9723 0.0259
vt 0.9723 0.1301
vt 0.0277 0.1301
vt 0.0277 0.0259
vt 0.9723 0.0259
vt 0.9723 0.1301
vt 0.0277 0.1301
vt 0.0271 1.0306
vt 0.0271 0.0574
vt 0.9729 0.0574
vt 0.9729 1.0306
vt 0.0277 0.0259
vt 0.9723 0.0259
vt 0.9723 0.1301
vt 0.0277 0.1301
vt 0.0277 0.0259
vt 0.9723 0.0259
vt 0.9723 0.1301
vt 0.0277 0.1301
vt 0.0277 0.0259
vt 0.9723 0.0259
vt 0.9723 0.1301
vt 0.0277 0.1301
vt 0.0271 1.0306
vt 0.0271 0.0574
vt 0.9729 0.0574
vt 0.9729 1.0306
vt 0.0277 0.0259
vt 0.9723 0.0259
vt 0.9723 0.1301
vt 0.0277 0.1301
vt 0.0277 0.0259
vt 0.9723 0.0259
vt 0.9723 0.1301
vt 0.0277 0.1301
vt 0.0000 0.0000
vt 1.0000 1.0000
vt 0.0000 1.0000
vt 0.0000 0.0000
vt 1.0000 0.0000
vt 1.0000 1.0000
vt 0.0000 1.0000
vt 0.0000 0.0000
vt 1.0000 0.0000
vt 1.0000 1.0000
vt 0.0000 0.0000
vt 1.0000 0.0000
vt 1.0000 1.0000
vt 0.0000 1.0000
vt 1.0000 0.0000
vt 1.0000 1.0000
vt 0.0000 1.0000
vt 0.0000 0.0000
vt 1.0000 1.0000
vt 0.0000 1.0000
vt 0.0000 0.0000
vt 1.0000 0.0000
vt 1.0000 1.0000
vt 0.0000 1.0000
vt 0.0000 0.0000
vt 1.0000 0.0000
vt 1.0000 1.0000
vt 0.0000 1.0000
vt 0.0000 0.0000
vt 1.0000 0.0000
vt 1.0000 1.0000
vt 0.0000 1.0000
vt 1.0000 1.0000
vt 0.0000 1.0000
vt 1.0000 1.0000
vt 0.0000 1.0000
vt 1.0000 1.0000
vt 0.0000 1.0000
vt 0.0000 0.0000
vt 1.0000 0.0000
vt 1.0000 1.0000
vt 0.0000 1.0000
vt 0.0000 0.0000
vt 1.0000 0.0000
vt 1.0000 1.0000
vt 0.0000 1.0000
vt 0.0000 0.0000
vt 1.0000 0.0000
vt 1.0000 1.0000
vt 0.0000 1.0000
vt 0.0000 0.0000
vt 1.0000 0.0000
vt 1.0000 1.0000
vt 0.0000 1.0000
vt 0.0000 0.0000
vt 1.0000 1.0000
vt 0.0000 1.0000
vt 0.0000 0.0000
vt 1.0000 0.0000
vt 1.0000 1.0000
vt 0.0000 1.0000
vt 0.0000 0.0000
vt 1.0000 0.0000
vt 1.0000 1.0000
vt 0.0000 1.0000
vt 0.0000 0.0000
vt 1.0000 0.0000
vt 1.0000 1.0000
vt 0.0000 1.0000
vt 0.0000 0.0000
vt 1.0000 0.0000
vt 1.0000 1.0000
vt 0.0000 1.0000
vt 0.0000 0.0000
vt 1.0000 0.0000
vt 1.0000 1.0000
vt 0.0000 1.0000
vt 0.0000 0.0000
vt 1.0000 0.0000
vt 1.0000 1.0000
vt 0.0000 1.0000
vt 0.0000 0.0000
vt 1.0000 0.0000
vt 1.0000 1.0000
vt 0.0000 1.0000
vt 0.0000 0.0000
vt 1.0000 0.0000
vt 1.0000 1.0000
vt 0.0000 1.0000
vt 0.5000 1.0000
vt 0.8536 0.8536
vt 1.0000 0.5000
vt 0.8536 0.1464
vt 0.5000 0.0000
vt 0.1464 0.1464
vt 0.0000 0.5000
vt 0.1464 0.8536
vt 0.0000 0.0000
vt 1.0000 0.0000
vt 1.0000 1.0000
vt 0.0000 1.0000
vt 0.0000 0.0000
vt 1.0000 0.0000
vt 1.0000 1.0000
vt 0.0000 1.0000
vt 0.5000 1.0000
vt 0.8536 0.8536
vt 1.0000 0.5000
vt 0.8536 0.1464
vt 0.5000 0.0000
vt 0.1464 0.1464
vt 0.0000 0.5000
vt 0.1464 0.8536
vt 0.0000 0.0000
vt 1.0000 0.0000
vt 1.0000 1.0000
vt 0.0000 1.0000
vt 0.0000 0.0000
vt 1.0000 0.0000
vt 1.0000 1.0000
vt 0.0000 1.0000
vt 0.0000 0.0000
vt 1.0000 0.0000
vt 1.0000 1.0000
vt 0.0000 1.0000
vt 0.0000 0.0000
vt 1.0000 0.0000
vt 1.0000 1.0000
vt 0.0000 1.0000
vt 1.0000 0.0000
vt 1.0000 1.0000
vt 0.0000 1.0000
vt 0.0000 0.0000
vt 1.0000 0.0000
vt 1.0000 1.0000
vt 0.0000 1.0000
vt 1.0000 0.0000
vt 1.0000 1.0000
vt 0.0000 1.0000
vt 0.0000 0.0000
vt 1.0000 0.0000
vt 1.0000 1.0000
vt 0.0000 1.0000
vt 0.0000 0.0000
vt 1.0000 0.0000
vt 1.0000 1.0000
vt 0.0000 0.0000
vt 1.0000 0.0000
vt 1.0000 1.0000
vt 0.0000 1.0000
vt 0.0000 0.0000
vt 1.0000 0.0000
vt 1.0000 1.0000
vt 0.0000 0.0000
vt 1.0000 0.0000
vt 1.0000 1.0000
vt 0.0000 1.0000
vt 0.0000 0.0000
vt 1.0000 0.0000
vt 1.0000 1.0000
vt 0.0000 0.0000
vt 1.0000 0.0000
vt 1.0000 1.0000
vt 0.0000 1.0000
vt 0.0000 0.0000
vt 1.0000 0.0000
vt 1.0000 1.0000
vt 0.0000 1.0000
vt 0.0000 0.0000
vt 1.0000 0.0000
vt 1.0000 1.0000
vt 0.0000 1.0000
vn -1.0000 0.0000 0.0000
vn 1.0000 0.0000 0.0000
vn 0.0000 0.0000 -1.0000
vn 0.0000 0.0000 1.0000
vn 0.0000 1.0000 0.0000
vn 0.0000 -1.0000 0.0000
vn 0.0000 -0.5902 -0.8072
vn -0.0000 -0.8072 0.5902
vn 0.0000 -0.5902 0.8072
vn 0.0000 -0.8072 -0.5902
vn 0.0000 0.8072 0.5902
vn -0.0000 0.8072 -0.5902
vn -0.0000 0.5902 -0.8072
vn 0.0000 0.5902 0.8072
vn 0.0000 0.9239 -0.3827
vn 0.0000 0.3827 -0.9239
vn 0.0000 -0.3827 -0.9239
vn 0.0000 -0.9239 -0.3827
vn 0.0000 -0.9239 0.3827
vn 0.0000 -0.3827 0.9239
vn 0.0000 0.3827 0.9239
vn 0.0000 0.9239 0.3827
usemtl Material.001
s off
f 25/1/1 26/2/1 20/3/1 19/4/1
f 27/5/2 28/6/2 22/7/2 21/8/2
f 23/9/2 24/10/2 28/11/2 27/12/2
f 17/13/1 18/14/1 26/15/1 25/16/1
f 129/17/1 130/18/1 132/19/1 131/20/1
f 131/21/3 132/22/3 136/23/3 135/24/3
f 135/25/2 136/26/2 134/27/2 133/28/2
f 133/29/4 134/30/4 130/31/4 129/32/4
usemtl Material.001_brick.jpg
f 73/33/1 74/34/1 76/35/1 75/36/1
f 75/37/3 76/38/3 80/39/3 79/40/3
f 79/41/2 80/42/2 78/43/2 77/44/2
f 77/45/4 78/46/4 74/47/4 73/48/4
f 80/49/5 76/50/5 74/51/5 78/52/5
f 81/53/1 82/54/1 84/55/1 83/56/1
f 89/57/3 90/58/3 88/59/3 87/60/3
f 91/61/4 92/62/4 82/63/4 81/64/4
f 90/65/5 84/66/5 82/67/5 92/68/5
f 88/69/3 90/70/3 93/71/3 94/72/3
f 85/73/4 86/74/4 92/62/4 91/61/4
f 83/75/3 84/76/3 90/77/3 89/78/3
f 94/79/5 93/80/5 96/81/5 95/82/5
f 90/83/1 92/84/1 96/85/1 93/86/1
f 92/87/4 86/88/4 95/89/4 96/90/4
usemtl Material.001_door.jpg
f 97/91/1 98/92/1 100/93/1 99/94/1
f 99/95/3 100/96/3 104/97/3 103/98/3
f 101/99/4 102/100/4 98/101/4 97/102/4
f 104/103/5 100/96/5 98/101/5 102/104/5
usemtl Material.001_rock.jpg
f 1/105/1 2/106/1 4/107/1 3/108/1
f 3/109/3 4/110/3 8/111/3 7/112/3
f 7/113/2 8/114/2 6/115/2 5/116/2
f 3/109/6 7/117/6 5/118/6 1/119/6
f 8/120/5 4/110/5 2/121/5 6/122/5
f 9/123/1 10/124/1 12/125/1 11/126/1
f 11/127/3 12/128/3 16/129/3 15/130/3
f 15/131/2 16/132/2 14/133/2 13/134/2
f 11/127/6 15/135/6 13/136/6 9/137/6
f 16/138/5 12/128/5 10/139/5 14/140/5
f 46/141/7 48/142/7 71/143/7 72/144/7
f 28/145/8 24/146/8 51/147/8 52/148/8
f 43/149/9 41/150/9 68/151/9 67/152/9
f 32/153/10 31/154/10 55/155/10 56/156/10
f 47/157/7 45/158/7 70/159/7 69/160/7
f 42/161/9 41/150/9 43/149/9 44/162/9
f 31/163/10 30/164/10 41/165/10 42/166/10
f 42/161/9 44/162/9 66/167/9 65/168/9
f 46/169/7 45/158/7 47/157/7 48/170/7
f 24/146/8 20/171/8 45/172/8 46/173/8
f 50/174/1 49/175/1 61/176/1 62/177/1
f 56/178/1 55/179/1 59/180/1 60/181/1
f 54/182/2 53/183/2 57/184/2 58/185/2
f 54/182/2 58/185/2 67/186/2 68/187/2
f 63/188/2 51/189/2 72/190/2 71/191/2
f 52/192/2 51/189/2 63/188/2 64/193/2
f 56/178/1 60/181/1 61/176/1 49/175/1
f 57/184/2 53/183/2 52/192/2 64/193/2
f 59/180/1 55/179/1 65/194/1 66/195/1
f 50/174/1 62/177/1 69/196/1 70/197/1
f 24/146/8 46/173/8 72/198/8 51/147/8
f 20/199/8 26/200/8 49/201/8 50/202/8
f 41/203/10 30/164/10 54/204/10 68/205/10
f 45/172/8 20/171/8 50/206/8 70/207/8
f 31/163/10 42/208/10 65/209/10 55/210/10
f 30/211/10 29/212/10 53/213/10 54/214/10
f 121/215/1 123/216/1 124/217/1 122/218/1
f 123/219/3 127/220/3 128/221/3 124/222/3
f 127/223/2 125/224/2 126/225/2 128/226/2
f 125/227/4 121/228/4 122/229/4 126/230/4
f 123/231/5 121/232/5 125/233/5 127/234/5
f 128/235/6 126/236/6 122/237/6 124/238/6
f 185/239/2 186/240/2 188/241/2 187/242/2
f 187/243/4 188/244/4 192/245/4 191/246/4
f 191/247/1 192/248/1 190/249/1 189/250/1
f 187/243/6 191/251/6 189/252/6 185/253/6
f 192/254/5 188/244/5 186/255/5 190/256/5
f 193/257/2 194/258/2 196/259/2 195/260/2
f 195/261/4 196/262/4 200/263/4 199/264/4
f 199/265/1 200/266/1 198/267/1 197/268/1
f 195/261/6 199/269/6 197/270/6 193/271/6
f 200/272/5 196/262/5 194/273/5 198/274/5
f 201/275/2 202/276/2 204/277/2 203/278/2
f 203/279/4 204/280/4 208/281/4 207/282/4
f 207/283/1 208/284/1 206/285/1 205/286/1
f 203/279/6 207/287/6 205/288/6 201/289/6
f 208/290/5 204/280/5 202/291/5 206/292/5
f 209/293/1 210/294/1 212/295/1 211/296/1
f 211/297/3 212/298/3 216/299/3 215/300/3
f 215/301/2 216/302/2 214/303/2 213/304/2
f 211/297/6 215/305/6 213/306/6 209/307/6
f 216/308/5 212/298/5 210/309/5 214/310/5
usemtl Material.001_roof.jpg
f 40/311/5 33/312/5 57/313/5 64/314/5
f 33/312/11 36/315/11 35/316/11 34/317/11
f 35/316/11 36/315/11 60/318/11 59/319/11
f 39/320/12 38/321/12 37/322/12 40/311/12
f 36/315/5 33/312/5 40/311/5 37/322/5
f 36/315/5 37/322/5 61/323/5 60/318/5
f 34/317/11 35/316/11 44/324/11 43/325/11
f 37/322/12 38/321/12 62/326/12 61/323/12
f 38/321/12 39/320/12 48/327/12 47/328/12
f 39/320/12 40/311/12 64/314/12 63/329/12
f 34/317/11 43/325/11 67/330/11 58/331/11
f 48/327/12 39/320/12 63/329/12 71/332/12
f 44/324/11 35/316/11 59/319/11 66/333/11
f 38/321/12 47/328/12 69/334/12 62/326/12
f 33/312/11 34/317/11 58/331/11 57/313/11
usemtl Material.001_window.jpg
f 137/335/1 138/336/1 140/337/1 139/338/1
f 143/339/2 144/340/2 142/341/2 141/342/2
f 141/343/4 142/344/4 138/345/4 137/346/4
f 139/347/6 143/348/6 141/349/6 137/350/6
f 144/351/5 140/352/5 138/353/5 142/354/5
f 145/355/1 146/356/1 148/357/1 147/358/1
f 151/359/2 152/360/2 150/361/2 149/362/2
f 149/363/4 150/364/4 146/365/4 145/366/4
f 152/367/5 148/368/5 146/369/5 150/370/5
f 153/371/1 154/372/1 156/373/1 155/374/1
f 159/375/2 160/376/2 158/377/2 157/378/2
f 157/379/4 158/380/4 154/381/4 153/382/4
f 160/383/5 156/384/5 154/385/5 158/386/5
f 161/387/1 162/388/1 164/389/1 163/390/1
f 163/391/3 164/392/3 168/393/3 167/394/3
f 167/395/2 168/396/2 166/397/2 165/398/2
f 168/399/5 164/400/5 162/401/5 166/402/5
f 169/403/1 170/404/1 172/405/1 171/406/1
f 171/407/3 172/408/3 176/409/3 175/410/3
f 175/411/2 176/412/2 174/413/2 173/414/2
f 176/415/5 172/416/5 170/417/5 174/418/5
f 177/419/1 178/420/1 180/421/1 179/422/1
f 179/423/3 180/424/3 184/425/3 183/426/3
f 183/427/2 184/428/2 182/429/2 181/430/2
f 184/431/5 180/432/5 178/433/5 182/434/5
usemtl Material.001_NONE
f 19/435/3 20/171/3 24/436/3 23/437/3
f 21/438/4 22/439/4 18/440/4 17/441/4
f 25/442/6 27/443/6 21/444/6 17/441/6
f 26/445/4 18/446/4 31/447/4 32/448/4
f 19/435/6 23/449/6 27/450/6 25/451/6
f 18/452/4 22/439/4 30/453/4 31/454/4
f 28/455/4 26/456/4 32/457/4 29/458/4
f 22/459/4 28/460/4 29/461/4 30/462/4
f 29/463/13 32/464/13 36/465/13 33/466/13
f 26/445/14 28/460/14 40/467/14 37/468/14
f 26/445/4 32/464/4 56/469/4 49/470/4
f 29/463/4 28/460/4 52/471/4 53/472/4
f 75/473/6 79/474/6 77/475/6 73/476/6
f 87/477/2 88/478/2 86/479/2 85/480/2
f 89/481/6 87/482/6 85/483/6 91/484/6
f 83/485/6 89/486/6 91/487/6 81/488/6
f 86/489/2 88/478/2 94/490/2 95/491/2
f 103/492/2 104/493/2 102/494/2 101/495/2
f 99/496/6 103/497/6 101/498/6 97/499/6
f 105/500/15 106/501/15 108/502/15 107/503/15
f 107/504/16 108/505/16 110/506/16 109/507/16
f 109/508/17 110/509/17 112/510/17 111/511/17
f 111/512/18 112/513/18 114/514/18 113/515/18
f 113/516/19 114/517/19 116/518/19 115/519/19
f 115/520/20 116/521/20 118/522/20 117/523/20
f 108/524/2 106/525/2 120/526/2 118/527/2 116/528/2 114/529/2 112/530/2 110/531/2
f 117/532/21 118/533/21 120/534/21 119/535/21
f 119/536/22 120/537/22 106/538/22 105/539/22
f 105/540/1 107/541/1 109/542/1 111/543/1 113/544/1 115/545/1 117/546/1 119/547/1
f 131/548/6 135/549/6 133/550/6 129/551/6
f 136/552/5 132/553/5 130/554/5 134/555/5
f 139/556/3 140/557/3 144/558/3 143/559/3
f 147/560/3 148/561/3 152/562/3 151/563/3
f 147/560/6 151/564/6 149/565/6 145/566/6
f 155/567/3 156/568/3 160/569/3 159/570/3
f 155/567/6 159/571/6 157/572/6 153/573/6
f 165/574/4 166/575/4 162/576/4 161/577/4
f 163/578/6 167/579/6 165/580/6 161/577/6
f 173/581/4 174/582/4 170/583/4 169/584/4
f 171/585/6 175/586/6 173/587/6 169/584/6
f 181/588/4 182/589/4 178/590/4 177/591/4
f 179/592/6 183/593/6 181/594/6 177/591/6
f 189/595/3 190/596/3 186/597/3 185/598/3
f 197/599/3 198/600/3 194/601/3 193/602/3
f 205/603/3 206/604/3 202/605/3 201/606/3
